<svg id="svg" version="1.1" xmlns="http://www.w3.org/2000/svg" xmlns:xlink="http://www.w3.org/1999/xlink" width="400" height="400" viewBox="0, 0, 400,400"><g id="svgg"><path id="path0" d="M340.000 249.029 C 340.000 249.453,341.236 250.497,341.467 250.267 C 341.592 250.141,341.417 249.760,341.076 249.419 C 340.441 248.784,340.000 248.624,340.000 249.029 M341.600 251.800 C 341.600 252.130,341.780 252.400,342.000 252.400 C 342.220 252.400,342.400 252.130,342.400 251.800 C 342.400 251.470,342.220 251.200,342.000 251.200 C 341.780 251.200,341.600 251.470,341.600 251.800 M342.400 253.600 C 342.400 254.040,342.580 254.400,342.800 254.400 C 343.020 254.400,343.200 254.760,343.200 255.200 C 343.200 255.640,343.380 256.000,343.600 256.000 C 343.820 256.000,344.000 255.640,344.000 255.200 C 344.000 254.760,343.820 254.400,343.600 254.400 C 343.380 254.400,343.200 254.040,343.200 253.600 C 343.200 253.160,343.020 252.800,342.800 252.800 C 342.580 252.800,342.400 253.160,342.400 253.600 M344.000 257.400 C 344.000 257.730,344.180 258.000,344.400 258.000 C 344.620 258.000,344.800 257.730,344.800 257.400 C 344.800 257.070,344.620 256.800,344.400 256.800 C 344.180 256.800,344.000 257.070,344.000 257.400 M344.800 259.200 C 344.800 259.640,344.980 260.000,345.200 260.000 C 345.420 260.000,345.600 260.360,345.600 260.800 C 345.600 261.240,345.780 261.600,346.000 261.600 C 346.220 261.600,346.400 261.240,346.400 260.800 C 346.400 260.360,346.220 260.000,346.000 260.000 C 345.780 260.000,345.600 259.640,345.600 259.200 C 345.600 258.760,345.420 258.400,345.200 258.400 C 344.980 258.400,344.800 258.760,344.800 259.200 M346.400 262.776 C 346.400 263.203,346.580 263.664,346.800 263.800 C 347.020 263.936,347.200 264.397,347.200 264.824 C 347.200 265.251,347.380 265.600,347.600 265.600 C 347.820 265.600,348.000 265.150,348.000 264.600 C 348.000 264.050,347.820 263.600,347.600 263.600 C 347.380 263.600,347.200 263.240,347.200 262.800 C 347.200 262.360,347.020 262.000,346.800 262.000 C 346.580 262.000,346.400 262.349,346.400 262.776 M348.000 266.800 C 348.000 267.240,348.180 267.600,348.400 267.600 C 348.620 267.600,348.800 268.061,348.800 268.624 C 348.800 269.204,348.973 269.540,349.200 269.400 C 349.420 269.264,349.600 268.803,349.600 268.376 C 349.600 267.949,349.420 267.600,349.200 267.600 C 348.980 267.600,348.800 267.240,348.800 266.800 C 348.800 266.360,348.620 266.000,348.400 266.000 C 348.180 266.000,348.000 266.360,348.000 266.800 M349.600 270.376 C 349.600 270.829,349.780 271.200,350.000 271.200 C 350.220 271.200,350.400 270.941,350.400 270.624 C 350.400 270.307,350.220 269.936,350.000 269.800 C 349.780 269.664,349.600 269.923,349.600 270.376 M350.400 272.400 C 350.400 272.840,350.591 273.200,350.825 273.200 C 351.059 273.200,351.194 273.588,351.125 274.063 C 351.056 274.537,351.225 275.002,351.500 275.096 C 351.815 275.204,352.000 274.884,352.000 274.233 C 352.000 273.665,351.820 273.200,351.600 273.200 C 351.380 273.200,351.200 272.840,351.200 272.400 C 351.200 271.960,351.020 271.600,350.800 271.600 C 350.580 271.600,350.400 271.960,350.400 272.400 M351.828 275.955 C 351.707 276.150,351.881 276.535,352.213 276.811 C 352.561 277.100,352.718 277.629,352.582 278.056 C 352.421 278.565,352.544 278.800,352.973 278.800 C 353.730 278.800,353.770 278.126,353.100 276.683 C 352.581 275.565,352.203 275.348,351.828 275.955 M353.362 279.661 C 353.206 279.914,353.337 280.319,353.653 280.561 C 353.970 280.802,354.168 281.298,354.092 281.663 C 354.017 282.027,354.147 282.444,354.381 282.588 C 354.983 282.960,355.400 281.640,354.853 281.093 C 354.604 280.844,354.400 280.316,354.400 279.920 C 354.400 279.111,353.796 278.960,353.362 279.661 M355.056 283.078 C 354.578 283.556,354.798 284.400,355.400 284.400 C 355.730 284.400,356.000 284.141,356.000 283.824 C 356.000 283.155,355.429 282.704,355.056 283.078 M355.600 285.600 C 355.600 286.040,355.780 286.400,356.000 286.400 C 356.220 286.400,356.400 286.749,356.400 287.176 C 356.400 287.942,357.073 288.660,357.444 288.289 C 357.549 288.184,357.403 287.356,357.120 286.449 C 356.588 284.744,355.600 284.192,355.600 285.600 M357.200 289.400 C 357.200 289.730,357.380 290.000,357.600 290.000 C 357.820 290.000,358.000 289.730,358.000 289.400 C 358.000 289.070,357.820 288.800,357.600 288.800 C 357.380 288.800,357.200 289.070,357.200 289.400 M358.000 291.200 C 358.000 291.640,358.180 292.000,358.400 292.000 C 358.620 292.000,358.800 292.450,358.800 293.000 C 358.800 293.550,358.980 294.000,359.200 294.000 C 359.420 294.000,359.600 294.450,359.600 295.000 C 359.600 295.550,359.768 296.000,359.973 296.000 C 360.179 296.000,360.415 296.495,360.497 297.100 C 360.629 298.062,360.690 298.106,360.987 297.447 C 361.195 296.984,361.148 296.408,360.863 295.952 C 360.608 295.545,360.400 294.938,360.400 294.605 C 360.400 294.272,360.220 294.000,360.000 294.000 C 359.780 294.000,359.600 293.651,359.600 293.224 C 359.600 292.797,359.420 292.336,359.200 292.200 C 358.980 292.064,358.800 291.603,358.800 291.176 C 358.800 290.749,358.620 290.400,358.400 290.400 C 358.180 290.400,358.000 290.760,358.000 291.200 M361.200 298.776 C 361.200 299.203,361.380 299.664,361.600 299.800 C 361.820 299.936,362.000 300.397,362.000 300.824 C 362.000 301.251,362.180 301.600,362.400 301.600 C 362.620 301.600,362.800 301.150,362.800 300.600 C 362.800 300.050,362.620 299.600,362.400 299.600 C 362.180 299.600,362.000 299.240,362.000 298.800 C 362.000 298.360,361.820 298.000,361.600 298.000 C 361.380 298.000,361.200 298.349,361.200 298.776 M362.800 302.800 C 362.800 303.240,362.980 303.600,363.200 303.600 C 363.420 303.600,363.600 304.050,363.600 304.600 C 363.600 305.150,363.780 305.600,364.000 305.600 C 364.220 305.600,364.400 305.960,364.400 306.400 C 364.400 306.840,364.580 307.200,364.800 307.200 C 365.020 307.200,365.200 306.851,365.200 306.424 C 365.200 305.997,365.020 305.536,364.800 305.400 C 364.580 305.264,364.400 304.803,364.400 304.376 C 364.400 303.949,364.220 303.600,364.000 303.600 C 363.780 303.600,363.600 303.240,363.600 302.800 C 363.600 302.360,363.420 302.000,363.200 302.000 C 362.980 302.000,362.800 302.360,362.800 302.800 M365.200 308.400 C 365.200 308.840,365.380 309.200,365.600 309.200 C 365.820 309.200,366.000 309.650,366.000 310.200 C 366.000 310.750,366.180 311.200,366.400 311.200 C 366.620 311.200,366.800 311.650,366.800 312.200 C 366.800 312.750,366.988 313.200,367.218 313.200 C 367.447 313.200,367.582 313.496,367.518 313.859 C 367.453 314.221,367.625 314.596,367.900 314.692 C 368.196 314.795,368.400 314.527,368.400 314.033 C 368.400 313.575,368.220 313.200,368.000 313.200 C 367.780 313.200,367.600 312.750,367.600 312.200 C 367.600 311.650,367.420 311.200,367.200 311.200 C 366.980 311.200,366.800 310.750,366.800 310.200 C 366.800 309.650,366.620 309.200,366.400 309.200 C 366.180 309.200,366.000 308.840,366.000 308.400 C 366.000 307.960,365.820 307.600,365.600 307.600 C 365.380 307.600,365.200 307.960,365.200 308.400 M368.162 315.661 C 368.006 315.914,368.178 316.341,368.546 316.610 C 368.936 316.895,369.111 317.367,368.965 317.746 C 368.817 318.132,368.958 318.486,369.314 318.622 C 369.673 318.760,369.831 319.161,369.709 319.626 C 369.566 320.171,369.711 320.400,370.200 320.400 C 370.735 320.400,370.830 320.194,370.614 319.500 C 370.461 319.005,370.239 318.195,370.121 317.700 C 370.003 317.205,369.748 316.800,369.553 316.800 C 369.359 316.800,369.200 316.440,369.200 316.000 C 369.200 315.124,368.613 314.932,368.162 315.661 M370.400 321.567 C 370.400 321.988,370.624 322.408,370.898 322.499 C 371.172 322.591,371.397 322.995,371.398 323.398 C 371.399 323.801,371.625 324.207,371.900 324.299 C 372.497 324.499,372.587 322.963,372.000 322.600 C 371.780 322.464,371.600 322.003,371.600 321.576 C 371.600 321.149,371.330 320.800,371.000 320.800 C 370.670 320.800,370.400 321.145,370.400 321.567 M372.000 325.376 C 372.000 325.693,372.180 326.064,372.400 326.200 C 372.620 326.336,372.800 326.797,372.800 327.224 C 372.800 327.651,372.980 328.000,373.200 328.000 C 373.420 328.000,373.600 328.450,373.600 329.000 C 373.600 329.550,373.780 330.000,374.000 330.000 C 374.220 330.000,374.400 330.450,374.400 331.000 C 374.400 331.550,374.580 332.000,374.800 332.000 C 375.020 332.000,375.200 332.360,375.200 332.800 C 375.200 333.240,375.380 333.600,375.600 333.600 C 375.820 333.600,376.000 333.150,376.000 332.600 C 376.000 332.050,375.820 331.600,375.600 331.600 C 375.380 331.600,375.200 331.270,375.200 330.867 C 375.200 330.463,375.065 329.998,374.900 329.833 C 374.735 329.668,374.584 329.413,374.565 329.267 C 374.510 328.842,373.974 327.462,373.571 326.705 C 373.367 326.323,373.200 325.738,373.200 325.405 C 373.200 325.072,372.930 324.800,372.600 324.800 C 372.270 324.800,372.000 325.059,372.000 325.376 M376.000 334.800 C 376.000 335.240,376.180 335.600,376.400 335.600 C 376.620 335.600,376.800 336.050,376.800 336.600 C 376.800 337.150,376.980 337.600,377.200 337.600 C 377.420 337.600,377.600 337.150,377.600 336.600 C 377.600 336.050,377.420 335.600,377.200 335.600 C 376.980 335.600,376.800 335.240,376.800 334.800 C 376.800 334.360,376.620 334.000,376.400 334.000 C 376.180 334.000,376.000 334.360,376.000 334.800 M316.067 338.300 C 281.136 338.359,255.590 338.552,255.667 338.757 C 255.740 338.952,258.860 341.781,262.600 345.043 C 266.340 348.306,269.940 351.453,270.600 352.037 C 271.260 352.622,273.510 354.585,275.600 356.401 C 277.690 358.217,280.032 360.264,280.803 360.951 C 281.575 361.638,283.554 363.370,285.200 364.800 C 286.846 366.230,288.825 367.964,289.597 368.653 C 292.395 371.153,313.778 389.839,315.539 391.324 C 317.790 393.223,323.059 397.897,324.305 399.100 L 325.236 400.000 361.058 400.000 C 401.783 400.000,399.342 400.193,399.831 396.930 C 400.203 394.454,399.817 389.072,399.255 388.885 C 399.005 388.802,398.800 388.388,398.800 387.967 C 398.800 387.545,398.620 387.200,398.400 387.200 C 398.180 387.200,398.000 386.761,398.000 386.224 C 398.000 385.687,397.820 385.136,397.600 385.000 C 397.380 384.864,397.200 384.403,397.200 383.976 C 397.200 383.549,397.020 383.200,396.800 383.200 C 396.580 383.200,396.400 382.660,396.400 382.000 C 396.400 381.340,396.220 380.800,396.000 380.800 C 395.780 380.800,395.600 380.440,395.600 380.000 C 395.600 379.560,395.420 379.200,395.200 379.200 C 394.980 379.200,394.800 378.851,394.800 378.424 C 394.800 377.997,394.620 377.536,394.400 377.400 C 394.180 377.264,394.000 376.803,394.000 376.376 C 394.000 375.949,393.820 375.600,393.600 375.600 C 393.380 375.600,393.200 375.240,393.200 374.800 C 393.200 374.360,393.020 374.000,392.800 374.000 C 392.580 374.000,392.400 373.460,392.400 372.800 C 392.400 372.140,392.240 371.600,392.045 371.600 C 391.849 371.600,391.563 370.928,391.409 370.107 C 391.255 369.286,390.785 367.902,390.364 367.032 C 389.944 366.162,389.600 365.214,389.600 364.925 C 389.600 364.636,389.420 364.400,389.200 364.400 C 388.980 364.400,388.800 364.045,388.800 363.612 C 388.800 363.179,388.440 362.183,388.000 361.400 C 387.560 360.617,387.200 359.621,387.200 359.188 C 387.200 358.755,387.020 358.400,386.800 358.400 C 386.580 358.400,386.400 358.040,386.400 357.600 C 386.400 357.160,386.220 356.800,386.000 356.800 C 385.780 356.800,385.600 356.361,385.600 355.824 C 385.600 355.287,385.420 354.736,385.200 354.600 C 384.980 354.464,384.800 354.003,384.800 353.576 C 384.800 353.149,384.620 352.800,384.400 352.800 C 384.180 352.800,384.000 352.440,384.000 352.000 C 384.000 351.560,383.820 351.200,383.600 351.200 C 383.380 351.200,383.200 350.761,383.200 350.224 C 383.200 349.687,383.020 349.136,382.800 349.000 C 382.580 348.864,382.400 348.403,382.400 347.976 C 382.400 347.549,382.220 347.200,382.000 347.200 C 381.780 347.200,381.600 346.761,381.600 346.224 C 381.600 345.687,381.420 345.136,381.200 345.000 C 380.980 344.864,380.800 344.393,380.800 343.953 C 380.800 343.513,380.620 343.264,380.400 343.400 C 380.174 343.540,380.000 343.212,380.000 342.647 C 380.000 342.097,379.820 341.536,379.600 341.400 C 379.380 341.264,379.200 340.803,379.200 340.376 C 379.200 339.949,379.020 339.600,378.800 339.600 C 378.580 339.600,378.400 339.240,378.400 338.800 C 378.400 338.208,378.166 338.026,377.500 338.099 C 377.005 338.153,349.360 338.244,316.067 338.300 M21.600 339.000 C 21.600 339.330,21.420 339.600,21.200 339.600 C 20.980 339.600,20.800 339.955,20.800 340.388 C 20.800 340.821,20.440 341.817,20.000 342.600 C 19.560 343.383,19.200 344.289,19.200 344.612 C 19.200 344.935,19.020 345.200,18.800 345.200 C 18.580 345.200,18.400 345.650,18.400 346.200 C 18.400 346.750,18.220 347.200,18.000 347.200 C 17.780 347.200,17.600 347.560,17.600 348.000 C 17.600 348.440,17.420 348.800,17.200 348.800 C 16.980 348.800,16.800 349.340,16.800 350.000 C 16.800 350.660,16.620 351.200,16.400 351.200 C 16.180 351.200,16.000 351.560,16.000 352.000 C 16.000 352.440,15.853 352.800,15.672 352.800 C 15.492 352.800,15.100 353.700,14.800 354.800 C 14.500 355.900,14.108 356.800,13.928 356.800 C 13.747 356.800,13.600 357.072,13.600 357.405 C 13.600 357.738,13.443 358.323,13.250 358.705 C 11.686 361.811,11.200 362.979,11.200 363.638 C 11.200 364.057,11.020 364.400,10.800 364.400 C 10.580 364.400,10.400 364.749,10.400 365.176 C 10.400 365.603,10.263 366.037,10.096 366.141 C 9.928 366.244,9.433 367.515,8.996 368.964 C 8.558 370.414,8.065 371.600,7.900 371.600 C 7.735 371.600,7.600 372.140,7.600 372.800 C 7.600 373.460,7.420 374.000,7.200 374.000 C 6.980 374.000,6.800 374.360,6.800 374.800 C 6.800 375.240,6.620 375.600,6.400 375.600 C 6.180 375.600,6.000 375.949,6.000 376.376 C 6.000 376.803,5.820 377.264,5.600 377.400 C 5.380 377.536,5.200 377.997,5.200 378.424 C 5.200 378.851,5.020 379.200,4.800 379.200 C 4.580 379.200,4.400 379.549,4.400 379.976 C 4.400 380.403,4.220 380.864,4.000 381.000 C 3.780 381.136,3.600 381.687,3.600 382.224 C 3.600 382.761,3.420 383.200,3.200 383.200 C 2.980 383.200,2.800 383.560,2.800 384.000 C 2.800 384.440,2.620 384.800,2.400 384.800 C 2.180 384.800,2.000 385.340,2.000 386.000 C 2.000 386.660,1.820 387.200,1.600 387.200 C 1.380 387.200,1.200 387.545,1.200 387.967 C 1.200 388.388,0.992 388.803,0.738 388.887 C 0.190 389.070,-0.224 394.880,0.164 396.948 C 0.752 400.083,0.045 400.000,26.157 400.000 L 49.220 400.000 49.618 398.900 C 49.837 398.295,50.174 397.440,50.367 397.000 C 51.316 394.837,52.099 392.963,54.127 388.000 C 60.316 372.851,63.240 365.723,63.562 365.000 C 64.591 362.689,65.253 361.103,66.400 358.200 C 67.095 356.440,67.920 354.415,68.232 353.700 C 69.546 350.691,70.029 349.532,72.160 344.270 C 73.392 341.229,74.400 338.664,74.400 338.570 C 74.400 338.477,62.520 338.400,48.000 338.400 C 24.800 338.400,21.600 338.473,21.600 339.000 " stroke="none" fill="#a3eafa" fill-rule="evenodd"></path><path id="path1" d="M111.482 248.900 C 111.365 249.395,109.536 253.940,107.416 259.000 C 105.296 264.060,103.015 269.550,102.348 271.200 C 101.681 272.850,100.859 274.830,100.520 275.600 C 99.179 278.652,98.818 279.519,97.600 282.600 C 96.905 284.360,96.083 286.340,95.773 287.000 C 95.464 287.660,94.596 289.730,93.843 291.600 L 92.475 295.000 65.738 295.089 L 39.000 295.178 38.873 296.196 C 38.803 296.755,38.578 297.110,38.373 296.983 C 38.168 296.856,38.000 297.090,38.000 297.501 C 38.000 297.913,37.640 298.995,37.200 299.906 C 36.760 300.816,36.400 301.840,36.400 302.181 C 36.400 302.521,36.220 302.800,36.000 302.800 C 35.780 302.800,35.600 303.149,35.600 303.576 C 35.600 304.003,35.420 304.464,35.200 304.600 C 34.980 304.736,34.800 305.287,34.800 305.824 C 34.800 306.361,34.620 306.800,34.400 306.800 C 34.180 306.800,34.000 307.160,34.000 307.600 C 34.000 308.040,33.859 308.400,33.687 308.400 C 33.515 308.400,33.135 309.210,32.843 310.200 C 32.551 311.190,32.152 312.000,31.956 312.000 C 31.760 312.000,31.600 312.349,31.600 312.776 C 31.600 313.203,31.420 313.664,31.200 313.800 C 30.980 313.936,30.800 314.487,30.800 315.024 C 30.800 315.561,30.653 316.000,30.472 316.000 C 30.292 316.000,29.900 316.900,29.600 318.000 C 29.300 319.100,28.908 320.000,28.728 320.000 C 28.547 320.000,28.400 320.360,28.400 320.800 C 28.400 321.240,28.259 321.600,28.087 321.600 C 27.915 321.600,27.526 322.455,27.222 323.500 C 26.918 324.545,26.562 325.490,26.431 325.600 C 26.300 325.710,25.865 326.790,25.463 328.000 C 24.689 330.329,24.133 331.756,23.553 332.895 C 23.359 333.277,23.200 333.862,23.200 334.195 C 23.200 334.528,23.020 334.800,22.800 334.800 C 22.580 334.800,22.400 335.160,22.400 335.600 C 22.400 336.040,22.220 336.400,22.000 336.400 C 21.780 336.400,21.600 336.850,21.600 337.400 L 21.600 338.400 48.000 338.400 C 62.520 338.400,74.400 338.477,74.400 338.570 C 74.400 338.664,73.392 341.229,72.160 344.270 C 70.029 349.532,69.546 350.691,68.232 353.700 C 67.920 354.415,67.095 356.440,66.400 358.200 C 65.253 361.103,64.591 362.689,63.562 365.000 C 63.240 365.723,60.316 372.851,54.127 388.000 C 52.099 392.963,51.316 394.837,50.367 397.000 C 50.174 397.440,49.837 398.295,49.618 398.900 L 49.220 400.000 72.968 400.000 L 96.716 400.000 98.192 396.300 C 99.004 394.265,99.941 391.970,100.275 391.200 C 100.608 390.430,101.043 389.395,101.241 388.900 C 101.438 388.405,101.762 387.595,101.959 387.100 C 102.157 386.605,102.588 385.570,102.918 384.800 C 103.248 384.030,105.624 378.180,108.197 371.800 C 110.771 365.420,113.309 359.250,113.838 358.088 C 114.367 356.927,114.800 355.748,114.800 355.468 C 114.800 355.189,114.953 354.789,115.141 354.580 C 115.329 354.371,116.334 352.040,117.375 349.400 C 118.416 346.760,119.541 343.970,119.875 343.200 C 120.209 342.430,120.625 341.440,120.800 341.000 C 120.975 340.560,121.390 339.570,121.721 338.800 C 122.053 338.030,124.429 332.180,127.002 325.800 C 129.575 319.420,131.950 313.570,132.281 312.800 C 132.611 312.030,133.025 311.040,133.201 310.600 C 133.377 310.160,133.898 308.947,134.360 307.904 C 134.822 306.862,135.200 305.824,135.200 305.599 C 135.200 305.374,135.380 304.877,135.600 304.495 C 135.820 304.113,136.354 302.945,136.786 301.900 C 137.654 299.801,137.891 299.675,139.025 300.703 C 139.451 301.090,140.966 302.395,142.391 303.603 C 143.816 304.812,146.876 307.420,149.191 309.401 C 151.506 311.382,155.020 314.351,157.000 316.000 C 158.980 317.649,160.690 319.093,160.800 319.210 C 160.910 319.326,162.166 320.406,163.591 321.610 C 165.016 322.815,168.076 325.420,170.391 327.401 C 172.706 329.382,176.220 332.351,178.200 334.000 C 180.180 335.649,181.890 337.093,182.000 337.210 C 182.110 337.326,183.370 338.404,184.800 339.606 C 186.230 340.808,188.130 342.423,189.022 343.195 C 189.913 343.968,191.176 345.050,191.828 345.600 C 193.420 346.943,197.942 350.790,199.193 351.866 C 199.747 352.342,202.810 354.930,206.000 357.616 C 209.190 360.303,212.342 362.973,213.004 363.550 C 213.666 364.128,215.373 365.590,216.797 366.800 C 218.221 368.010,219.839 369.389,220.393 369.864 C 221.398 370.727,230.180 378.162,237.000 383.924 C 238.980 385.597,240.799 387.153,241.042 387.383 C 241.285 387.612,242.881 388.970,244.588 390.400 C 246.296 391.830,249.517 394.572,251.747 396.493 L 255.800 399.986 290.300 399.993 C 311.656 399.997,324.800 399.856,324.800 399.623 C 324.800 399.415,324.458 399.006,324.040 398.713 C 323.623 398.421,321.945 396.981,320.313 395.515 C 318.681 394.048,316.533 392.163,315.539 391.324 C 313.778 389.839,292.395 371.153,289.597 368.653 C 288.825 367.964,286.846 366.230,285.200 364.800 C 283.554 363.370,281.575 361.638,280.803 360.951 C 280.032 360.264,277.690 358.217,275.600 356.401 C 273.510 354.585,271.260 352.622,270.600 352.037 C 269.940 351.453,266.340 348.306,262.600 345.043 C 258.860 341.781,255.740 338.951,255.667 338.756 C 255.589 338.549,280.851 338.388,315.867 338.372 C 349.050 338.356,376.560 338.189,377.000 338.000 C 377.440 337.811,377.575 337.644,377.300 337.628 C 377.025 337.613,376.800 337.150,376.800 336.600 C 376.800 336.050,376.620 335.600,376.400 335.600 C 376.180 335.600,376.000 335.150,376.000 334.600 C 376.000 334.050,375.820 333.600,375.600 333.600 C 375.380 333.600,375.200 333.240,375.200 332.800 C 375.200 332.360,375.020 332.000,374.800 332.000 C 374.580 332.000,374.400 331.550,374.400 331.000 C 374.400 330.450,374.220 330.000,374.000 330.000 C 373.780 330.000,373.600 329.550,373.600 329.000 C 373.600 328.450,373.420 328.000,373.200 328.000 C 372.980 328.000,372.800 327.651,372.800 327.224 C 372.800 326.797,372.604 326.326,372.365 326.178 C 372.126 326.031,372.016 325.582,372.121 325.181 C 372.230 324.762,372.057 324.354,371.714 324.222 C 371.386 324.096,371.218 323.730,371.342 323.407 C 371.466 323.085,371.277 322.659,370.924 322.461 C 370.512 322.231,370.360 321.795,370.503 321.251 C 370.658 320.658,370.540 320.400,370.116 320.400 C 369.710 320.400,369.574 320.141,369.709 319.626 C 369.829 319.166,369.674 318.761,369.328 318.628 C 368.967 318.489,368.836 318.117,368.984 317.649 C 369.139 317.164,368.996 316.807,368.584 316.649 C 368.173 316.491,368.030 316.135,368.184 315.649 C 368.335 315.174,368.199 314.809,367.819 314.663 C 367.471 314.529,367.314 314.168,367.450 313.815 C 367.579 313.477,367.486 313.200,367.243 313.200 C 366.999 313.200,366.800 312.750,366.800 312.200 C 366.800 311.650,366.620 311.200,366.400 311.200 C 366.180 311.200,366.000 310.750,366.000 310.200 C 366.000 309.650,365.820 309.200,365.600 309.200 C 365.380 309.200,365.200 308.750,365.200 308.200 C 365.200 307.650,365.020 307.200,364.800 307.200 C 364.580 307.200,364.400 306.840,364.400 306.400 C 364.400 305.960,364.220 305.600,364.000 305.600 C 363.780 305.600,363.600 305.150,363.600 304.600 C 363.600 304.050,363.420 303.600,363.200 303.600 C 362.980 303.600,362.800 303.150,362.800 302.600 C 362.800 302.050,362.620 301.600,362.400 301.600 C 362.180 301.600,362.000 301.251,362.000 300.824 C 362.000 300.397,361.820 299.936,361.600 299.800 C 361.380 299.664,361.200 299.103,361.200 298.553 C 361.200 297.988,361.026 297.660,360.800 297.800 C 360.580 297.936,360.400 297.664,360.400 297.195 C 360.400 295.084,363.964 295.200,299.016 295.200 L 238.774 295.200 234.458 299.500 C 228.469 305.466,223.563 310.125,219.812 313.409 C 216.852 316.000,215.637 317.081,211.400 320.891 C 199.806 331.318,198.795 331.245,186.000 319.062 C 184.570 317.700,181.254 314.699,178.632 312.393 C 169.518 304.378,151.755 286.334,143.002 276.200 C 141.291 274.220,138.912 271.479,137.714 270.110 C 135.302 267.353,132.388 263.705,125.800 255.197 C 119.626 247.224,120.699 248.000,115.847 248.000 C 111.869 248.000,111.684 248.038,111.482 248.900 " stroke="none" fill="#fbda51" fill-rule="evenodd"></path><path id="path2" d="M183.100 0.274 C 181.615 0.363,180.400 0.608,180.400 0.818 C 180.400 1.028,179.320 1.200,178.000 1.200 C 176.667 1.200,175.600 1.378,175.600 1.600 C 175.600 1.820,174.700 2.000,173.600 2.000 C 172.500 2.000,171.600 2.180,171.600 2.400 C 171.600 2.620,170.880 2.800,170.000 2.800 C 169.120 2.800,168.400 2.980,168.400 3.200 C 168.400 3.420,167.781 3.600,167.024 3.600 C 166.267 3.600,165.536 3.780,165.400 4.000 C 165.264 4.220,164.634 4.400,164.000 4.400 C 163.366 4.400,162.736 4.580,162.600 4.800 C 162.464 5.020,161.823 5.200,161.176 5.200 C 160.529 5.200,160.000 5.380,160.000 5.600 C 160.000 5.820,159.640 6.000,159.200 6.000 C 158.760 6.000,158.400 6.180,158.400 6.400 C 158.400 6.620,157.860 6.800,157.200 6.800 C 156.540 6.800,156.000 6.980,156.000 7.200 C 156.000 7.420,155.460 7.600,154.800 7.600 C 154.140 7.600,153.600 7.760,153.600 7.955 C 153.600 8.151,152.925 8.435,152.100 8.587 C 150.533 8.876,142.298 12.728,142.067 13.282 C 141.993 13.457,141.588 13.600,141.167 13.600 C 140.745 13.600,140.400 13.780,140.400 14.000 C 140.400 14.220,140.040 14.400,139.600 14.400 C 139.160 14.400,138.800 14.580,138.800 14.800 C 138.800 15.020,138.440 15.200,138.000 15.200 C 137.560 15.200,137.200 15.380,137.200 15.600 C 137.200 15.820,136.964 16.000,136.675 16.000 C 136.387 16.000,135.764 16.360,135.292 16.800 C 134.820 17.240,134.196 17.600,133.905 17.600 C 133.614 17.600,133.117 17.960,132.800 18.400 C 132.483 18.840,131.903 19.200,131.512 19.200 C 131.120 19.200,130.800 19.380,130.800 19.600 C 130.800 19.820,130.564 20.000,130.275 20.000 C 129.987 20.000,129.364 20.360,128.892 20.800 C 128.420 21.240,127.926 21.600,127.795 21.600 C 127.664 21.600,126.981 22.139,126.278 22.798 C 125.575 23.457,124.857 23.997,124.683 23.998 C 124.509 23.999,123.969 24.375,123.483 24.834 C 122.997 25.293,122.086 25.937,121.457 26.266 C 120.828 26.596,119.519 27.660,118.546 28.633 C 117.574 29.605,116.622 30.400,116.430 30.400 C 115.933 30.400,104.400 42.114,104.400 42.618 C 104.400 42.747,103.500 43.729,102.400 44.800 C 101.300 45.871,100.400 46.958,100.400 47.214 C 100.400 47.470,99.860 48.183,99.200 48.800 C 98.540 49.417,98.000 50.120,98.000 50.364 C 98.000 50.608,97.460 51.372,96.800 52.063 C 96.140 52.754,95.600 53.522,95.600 53.771 C 95.600 54.020,95.240 54.483,94.800 54.800 C 94.360 55.117,94.000 55.697,94.000 56.088 C 94.000 56.480,93.847 56.800,93.661 56.800 C 93.474 56.800,92.984 57.565,92.573 58.500 C 92.161 59.435,91.503 60.491,91.112 60.847 C 90.720 61.203,90.400 61.788,90.400 62.147 C 90.400 62.506,90.220 62.800,90.000 62.800 C 89.780 62.800,89.600 63.036,89.600 63.325 C 89.600 63.613,89.240 64.236,88.800 64.708 C 88.360 65.180,88.000 65.844,88.000 66.183 C 88.000 66.522,87.820 66.800,87.600 66.800 C 87.380 66.800,87.200 67.160,87.200 67.600 C 87.200 68.040,87.020 68.400,86.800 68.400 C 86.580 68.400,86.400 68.760,86.400 69.200 C 86.400 69.640,86.220 70.000,86.000 70.000 C 85.780 70.000,85.600 70.360,85.600 70.800 C 85.600 71.240,85.420 71.600,85.200 71.600 C 84.980 71.600,84.800 71.872,84.800 72.205 C 84.800 72.538,84.632 73.123,84.426 73.505 C 84.221 73.887,83.817 74.785,83.529 75.500 C 83.240 76.215,82.869 76.800,82.702 76.800 C 82.536 76.800,82.400 77.149,82.400 77.576 C 82.400 78.003,82.220 78.464,82.000 78.600 C 81.780 78.736,81.600 79.287,81.600 79.824 C 81.600 80.361,81.420 80.800,81.200 80.800 C 80.980 80.800,80.800 81.340,80.800 82.000 C 80.800 82.660,80.620 83.200,80.400 83.200 C 80.180 83.200,80.000 83.562,80.000 84.005 C 80.000 84.448,79.841 85.123,79.647 85.505 C 79.020 86.737,78.502 88.160,78.046 89.900 C 77.801 90.835,77.396 92.365,77.146 93.300 C 76.194 96.864,76.039 97.449,75.590 99.167 C 75.336 100.138,75.028 102.613,74.905 104.667 C 74.783 106.720,74.529 108.400,74.341 108.400 C 74.154 108.400,74.000 109.379,74.000 110.576 C 74.000 111.773,73.820 112.864,73.600 113.000 C 73.346 113.157,73.200 118.271,73.200 127.024 C 73.200 135.941,73.341 140.800,73.600 140.800 C 73.837 140.800,74.000 142.267,74.000 144.400 C 74.000 146.533,74.163 148.000,74.400 148.000 C 74.620 148.000,74.801 148.855,74.802 149.900 C 74.805 151.718,75.221 154.521,76.066 158.400 C 76.282 159.390,76.553 160.965,76.669 161.900 C 76.786 162.835,77.042 163.600,77.240 163.600 C 77.438 163.600,77.600 164.320,77.600 165.200 C 77.600 166.080,77.780 166.800,78.000 166.800 C 78.220 166.800,78.400 167.329,78.400 167.976 C 78.400 168.623,78.580 169.264,78.800 169.400 C 79.020 169.536,79.200 170.166,79.200 170.800 C 79.200 171.434,79.380 172.064,79.600 172.200 C 79.820 172.336,80.000 172.889,80.000 173.429 C 80.000 173.969,80.180 174.768,80.400 175.205 C 80.620 175.642,80.980 176.358,81.200 176.795 C 81.420 177.232,81.600 177.952,81.600 178.395 C 81.600 178.838,81.780 179.200,82.000 179.200 C 82.220 179.200,82.400 179.740,82.400 180.400 C 82.400 181.060,82.580 181.600,82.800 181.600 C 83.020 181.600,83.200 182.140,83.200 182.800 C 83.200 183.460,83.380 184.000,83.600 184.000 C 83.820 184.000,84.000 184.439,84.000 184.976 C 84.000 185.513,84.180 186.064,84.400 186.200 C 84.620 186.336,84.800 186.797,84.800 187.224 C 84.800 187.651,84.980 188.000,85.200 188.000 C 85.420 188.000,85.600 188.450,85.600 189.000 C 85.600 189.550,85.780 190.000,86.000 190.000 C 86.220 190.000,86.400 190.360,86.400 190.800 C 86.400 191.240,86.580 191.600,86.800 191.600 C 87.020 191.600,87.200 192.140,87.200 192.800 C 87.200 193.460,87.380 194.000,87.600 194.000 C 87.820 194.000,88.000 194.360,88.000 194.800 C 88.000 195.240,88.180 195.600,88.400 195.600 C 88.620 195.600,88.800 195.960,88.800 196.400 C 88.800 196.840,88.980 197.200,89.200 197.200 C 89.420 197.200,89.600 197.560,89.600 198.000 C 89.600 198.440,89.780 198.800,90.000 198.800 C 90.220 198.800,90.400 199.160,90.400 199.600 C 90.400 200.040,90.580 200.400,90.800 200.400 C 91.020 200.400,91.200 200.762,91.200 201.205 C 91.200 201.648,91.363 202.323,91.563 202.705 C 91.763 203.087,92.438 204.435,93.063 205.699 C 93.688 206.964,94.335 207.999,94.500 207.999 C 94.665 208.000,94.800 208.360,94.800 208.800 C 94.800 209.240,94.980 209.600,95.200 209.600 C 95.420 209.600,95.600 209.960,95.600 210.400 C 95.600 210.840,95.780 211.200,96.000 211.200 C 96.220 211.200,96.400 211.560,96.400 212.000 C 96.400 212.440,96.580 212.800,96.800 212.800 C 97.020 212.800,97.200 213.160,97.200 213.600 C 97.200 214.040,97.380 214.400,97.600 214.400 C 97.820 214.400,98.000 214.760,98.000 215.200 C 98.000 215.640,98.180 216.000,98.400 216.000 C 98.620 216.000,98.800 216.236,98.800 216.525 C 98.800 216.813,99.160 217.436,99.600 217.908 C 100.040 218.380,100.400 219.044,100.400 219.383 C 100.400 219.722,100.580 220.000,100.800 220.000 C 101.020 220.000,101.200 220.360,101.200 220.800 C 101.200 221.240,101.380 221.600,101.600 221.600 C 101.820 221.600,102.000 221.870,102.000 222.200 C 102.000 222.530,102.180 222.800,102.400 222.800 C 102.620 222.800,102.800 223.070,102.800 223.400 C 102.800 223.730,102.980 224.000,103.200 224.000 C 103.420 224.000,103.600 224.230,103.600 224.512 C 103.600 224.793,103.960 225.283,104.400 225.600 C 104.840 225.917,105.200 226.497,105.200 226.888 C 105.200 227.280,105.380 227.600,105.600 227.600 C 105.820 227.600,106.000 227.920,106.000 228.312 C 106.000 228.703,106.360 229.283,106.800 229.600 C 107.240 229.917,107.600 230.497,107.600 230.888 C 107.600 231.280,107.735 231.600,107.900 231.601 C 108.065 231.601,108.726 232.681,109.370 234.001 C 110.013 235.320,110.646 236.400,110.775 236.400 C 110.905 236.400,111.456 237.120,112.000 238.000 C 112.544 238.880,113.126 239.600,113.294 239.600 C 113.462 239.600,113.600 239.830,113.600 240.112 C 113.600 240.393,113.960 240.883,114.400 241.200 C 114.840 241.517,115.200 242.057,115.200 242.400 C 115.200 242.743,115.560 243.283,116.000 243.600 C 116.440 243.917,116.800 244.385,116.800 244.640 C 116.800 245.041,117.883 246.213,120.700 248.857 C 121.085 249.219,123.380 252.072,125.800 255.197 C 132.388 263.705,135.302 267.353,137.714 270.110 C 138.912 271.479,141.291 274.220,143.002 276.200 C 151.755 286.334,169.518 304.378,178.632 312.393 C 181.254 314.699,184.570 317.700,186.000 319.062 C 198.795 331.245,199.806 331.318,211.400 320.891 C 215.637 317.081,216.852 316.000,219.812 313.409 C 229.858 304.614,247.464 286.623,257.799 274.588 C 260.439 271.515,262.691 268.910,262.805 268.800 C 263.010 268.601,266.167 264.763,267.077 263.606 C 267.339 263.273,268.699 261.560,270.100 259.800 C 271.500 258.040,274.134 254.665,275.953 252.300 C 277.773 249.935,279.523 248.000,279.843 248.000 C 280.163 248.000,280.542 247.685,280.685 247.300 C 280.828 246.915,281.272 246.309,281.672 245.953 C 282.073 245.597,282.400 245.052,282.400 244.741 C 282.400 244.431,282.760 243.917,283.200 243.600 C 283.640 243.283,284.000 242.801,284.000 242.530 C 284.000 242.258,284.405 241.612,284.900 241.094 C 286.274 239.656,287.985 237.438,287.993 237.083 C 287.997 236.909,288.360 236.380,288.800 235.908 C 289.240 235.436,289.600 234.813,289.600 234.525 C 289.600 234.236,289.747 234.000,289.926 234.000 C 290.301 234.000,291.600 231.419,291.600 230.675 C 291.600 230.401,291.960 229.917,292.400 229.600 C 292.840 229.283,293.200 228.786,293.200 228.495 C 293.200 228.204,293.560 227.580,294.000 227.108 C 294.440 226.636,294.800 226.013,294.800 225.725 C 294.800 225.436,294.980 225.200,295.200 225.200 C 295.420 225.200,295.600 225.012,295.600 224.783 C 295.600 224.554,295.960 223.980,296.400 223.508 C 296.840 223.036,297.200 222.413,297.200 222.125 C 297.200 221.836,297.380 221.600,297.600 221.600 C 297.820 221.600,298.000 221.280,298.000 220.888 C 298.000 220.497,298.360 219.917,298.800 219.600 C 299.240 219.283,299.600 218.703,299.600 218.312 C 299.600 217.920,299.780 217.600,300.000 217.600 C 300.220 217.600,300.400 217.240,300.400 216.800 C 300.400 216.360,300.580 216.000,300.800 216.000 C 301.020 216.000,301.200 215.640,301.200 215.200 C 301.200 214.760,301.380 214.400,301.600 214.400 C 301.820 214.400,302.000 214.040,302.000 213.600 C 302.000 213.160,302.180 212.800,302.400 212.800 C 302.620 212.800,302.800 212.440,302.800 212.000 C 302.800 211.560,302.980 211.200,303.200 211.200 C 303.420 211.200,303.600 210.855,303.600 210.433 C 303.600 210.012,303.735 209.607,303.900 209.533 C 304.367 209.326,306.532 205.599,307.348 203.600 C 307.752 202.610,308.244 201.487,308.441 201.105 C 308.638 200.723,308.800 200.048,308.800 199.605 C 308.800 199.162,308.980 198.800,309.200 198.800 C 309.420 198.800,309.600 198.440,309.600 198.000 C 309.600 197.560,309.780 197.200,310.000 197.200 C 310.220 197.200,310.400 196.840,310.400 196.400 C 310.400 195.960,310.580 195.600,310.800 195.600 C 311.020 195.600,311.200 195.240,311.200 194.800 C 311.200 194.360,311.380 194.000,311.600 194.000 C 311.820 194.000,312.000 193.460,312.000 192.800 C 312.000 192.140,312.135 191.599,312.300 191.597 C 312.706 191.593,313.600 189.614,313.600 188.720 C 313.600 188.324,313.780 188.000,314.000 188.000 C 314.220 188.000,314.400 187.640,314.400 187.200 C 314.400 186.760,314.580 186.400,314.800 186.400 C 315.020 186.400,315.200 185.860,315.200 185.200 C 315.200 184.540,315.380 184.000,315.600 184.000 C 315.820 184.000,316.000 183.460,316.000 182.800 C 316.000 182.140,316.180 181.600,316.400 181.600 C 316.620 181.600,316.800 181.251,316.800 180.824 C 316.800 180.397,316.980 179.936,317.200 179.800 C 317.420 179.664,317.600 179.113,317.600 178.576 C 317.600 178.039,317.780 177.600,318.000 177.600 C 318.220 177.600,318.400 177.060,318.400 176.400 C 318.400 175.740,318.580 175.200,318.800 175.200 C 319.020 175.200,319.200 174.570,319.200 173.800 C 319.200 173.030,319.380 172.400,319.600 172.400 C 319.820 172.400,320.000 171.871,320.000 171.224 C 320.000 170.577,320.180 169.936,320.400 169.800 C 320.620 169.664,320.800 168.933,320.800 168.176 C 320.800 167.419,320.980 166.800,321.200 166.800 C 321.420 166.800,321.600 166.181,321.600 165.424 C 321.600 164.667,321.780 163.936,322.000 163.800 C 322.220 163.664,322.400 162.843,322.400 161.976 C 322.400 161.109,322.562 160.400,322.760 160.400 C 322.958 160.400,323.219 159.635,323.341 158.700 C 323.463 157.765,323.756 155.920,323.992 154.600 C 324.806 150.053,325.159 146.993,325.179 144.300 C 325.191 142.780,325.375 141.600,325.600 141.600 C 325.859 141.600,326.000 136.533,326.000 127.200 C 326.000 119.280,325.846 112.800,325.657 112.800 C 325.468 112.800,325.186 110.786,325.031 108.325 C 324.875 105.863,324.579 103.535,324.374 103.151 C 324.168 102.767,324.000 101.731,324.000 100.850 C 324.000 99.968,323.820 99.136,323.600 99.000 C 323.380 98.864,323.200 98.144,323.200 97.400 C 323.200 96.656,323.020 95.936,322.800 95.800 C 322.580 95.664,322.400 94.933,322.400 94.176 C 322.400 93.419,322.220 92.800,322.000 92.800 C 321.780 92.800,321.600 92.080,321.600 91.200 C 321.600 90.320,321.420 89.600,321.200 89.600 C 320.980 89.600,320.800 89.060,320.800 88.400 C 320.800 87.740,320.620 87.200,320.400 87.200 C 320.180 87.200,320.000 86.660,320.000 86.000 C 320.000 85.340,319.820 84.800,319.600 84.800 C 319.380 84.800,319.200 84.440,319.200 84.000 C 319.200 83.560,319.020 83.200,318.800 83.200 C 318.580 83.200,318.400 82.660,318.400 82.000 C 318.400 81.340,318.220 80.800,318.000 80.800 C 317.780 80.800,317.600 80.260,317.600 79.600 C 317.600 78.940,317.420 78.400,317.200 78.400 C 316.980 78.400,316.800 77.950,316.800 77.400 C 316.800 76.850,316.620 76.400,316.400 76.400 C 316.180 76.400,316.000 76.040,316.000 75.600 C 316.000 75.160,315.820 74.800,315.600 74.800 C 315.380 74.800,315.200 74.440,315.200 74.000 C 315.200 73.560,315.020 73.200,314.800 73.200 C 314.580 73.200,314.400 72.840,314.400 72.400 C 314.400 71.960,314.220 71.600,314.000 71.600 C 313.780 71.600,313.600 71.240,313.600 70.800 C 313.600 70.360,313.420 70.000,313.200 70.000 C 312.980 70.000,312.800 69.640,312.800 69.200 C 312.800 68.760,312.620 68.400,312.400 68.400 C 312.180 68.400,312.000 68.040,312.000 67.600 C 312.000 67.160,311.820 66.800,311.600 66.800 C 311.380 66.800,311.200 66.440,311.200 66.000 C 311.200 65.560,311.020 65.200,310.800 65.200 C 310.580 65.200,310.400 64.880,310.400 64.488 C 310.400 64.097,310.040 63.517,309.600 63.200 C 309.160 62.883,308.800 62.303,308.800 61.912 C 308.800 61.520,308.665 61.198,308.500 61.196 C 308.335 61.194,307.845 60.384,307.410 59.396 C 306.976 58.408,306.493 57.600,306.337 57.600 C 306.181 57.600,305.938 57.234,305.796 56.787 C 305.654 56.340,305.102 55.538,304.569 55.005 C 304.036 54.472,303.600 53.847,303.600 53.615 C 303.600 53.383,303.060 52.628,302.400 51.937 C 301.740 51.246,301.200 50.526,301.200 50.337 C 301.200 50.148,300.660 49.428,300.000 48.737 C 299.340 48.046,298.800 47.314,298.800 47.109 C 298.800 46.905,298.080 46.046,297.200 45.200 C 296.320 44.354,295.600 43.555,295.600 43.423 C 295.600 42.887,282.097 29.200,281.568 29.200 C 281.351 29.200,280.543 28.570,279.773 27.800 C 279.003 27.030,278.227 26.400,278.048 26.400 C 277.762 26.400,277.152 25.955,275.317 24.407 C 275.051 24.183,274.718 24.000,274.577 24.000 C 274.436 24.000,273.817 23.460,273.200 22.800 C 272.583 22.140,271.831 21.600,271.528 21.600 C 271.225 21.600,270.717 21.240,270.400 20.800 C 270.083 20.360,269.503 20.000,269.112 20.000 C 268.720 20.000,268.400 19.820,268.400 19.600 C 268.400 19.380,268.164 19.200,267.875 19.200 C 267.587 19.200,266.964 18.840,266.492 18.400 C 266.020 17.960,265.396 17.600,265.105 17.600 C 264.814 17.600,264.317 17.240,264.000 16.800 C 263.683 16.360,263.103 16.000,262.712 16.000 C 262.320 16.000,262.000 15.820,262.000 15.600 C 262.000 15.380,261.640 15.200,261.200 15.200 C 260.760 15.200,260.400 15.020,260.400 14.800 C 260.400 14.580,260.040 14.400,259.600 14.400 C 259.160 14.400,258.800 14.254,258.800 14.075 C 258.800 13.896,258.170 13.502,257.400 13.200 C 256.630 12.898,256.000 12.504,256.000 12.325 C 256.000 12.146,255.640 12.000,255.200 12.000 C 254.760 12.000,254.400 11.820,254.400 11.600 C 254.400 11.380,254.040 11.200,253.600 11.200 C 253.160 11.200,252.800 11.020,252.800 10.800 C 252.800 10.580,252.440 10.400,252.000 10.400 C 251.560 10.400,251.200 10.220,251.200 10.000 C 251.200 9.780,250.851 9.600,250.424 9.600 C 249.997 9.600,249.549 9.441,249.429 9.246 C 249.308 9.052,248.398 8.771,247.405 8.622 C 246.412 8.473,245.600 8.182,245.600 7.975 C 245.600 7.769,245.060 7.600,244.400 7.600 C 243.740 7.600,243.200 7.420,243.200 7.200 C 243.200 6.980,242.750 6.800,242.200 6.800 C 241.650 6.800,241.200 6.620,241.200 6.400 C 241.200 6.180,240.851 6.000,240.424 6.000 C 239.997 6.000,239.536 5.820,239.400 5.600 C 239.264 5.380,238.724 5.200,238.200 5.200 C 237.676 5.200,237.136 5.020,237.000 4.800 C 236.864 4.580,236.133 4.400,235.376 4.400 C 234.619 4.400,234.000 4.220,234.000 4.000 C 234.000 3.780,233.280 3.600,232.400 3.600 C 231.520 3.600,230.800 3.420,230.800 3.200 C 230.800 2.980,230.080 2.800,229.200 2.800 C 228.320 2.800,227.600 2.620,227.600 2.400 C 227.600 2.180,226.801 2.000,225.824 2.000 C 224.847 2.000,223.936 1.820,223.800 1.600 C 223.664 1.380,222.609 1.200,221.456 1.200 C 220.303 1.200,219.138 0.978,218.866 0.706 C 218.377 0.217,189.787 -0.128,183.100 0.274 M202.200 79.600 C 202.336 79.820,203.787 80.000,205.424 80.000 C 207.141 80.000,208.400 80.169,208.400 80.400 C 208.400 80.620,209.019 80.800,209.776 80.800 C 210.533 80.800,211.264 80.980,211.400 81.200 C 211.536 81.420,212.267 81.600,213.024 81.600 C 213.781 81.600,214.400 81.780,214.400 82.000 C 214.400 82.220,214.749 82.400,215.176 82.400 C 215.603 82.400,216.064 82.580,216.200 82.800 C 216.336 83.020,216.887 83.200,217.424 83.200 C 217.961 83.200,218.400 83.380,218.400 83.600 C 218.400 83.820,218.760 84.000,219.200 84.000 C 219.640 84.000,220.000 84.180,220.000 84.400 C 220.000 84.620,220.360 84.800,220.800 84.800 C 221.240 84.800,221.600 84.980,221.600 85.200 C 221.600 85.420,221.920 85.600,222.312 85.600 C 222.703 85.600,223.283 85.960,223.600 86.400 C 223.917 86.840,224.420 87.200,224.717 87.200 C 225.014 87.200,225.489 87.425,225.773 87.700 C 226.840 88.735,229.322 90.623,230.430 91.244 C 231.062 91.598,231.463 92.003,231.323 92.144 C 231.182 92.285,231.285 92.400,231.552 92.400 C 232.106 92.400,234.000 94.188,234.000 94.711 C 234.000 94.902,234.900 96.022,236.000 97.200 C 237.100 98.378,238.000 99.540,238.000 99.782 C 238.000 100.025,238.360 100.483,238.800 100.800 C 239.240 101.117,239.600 101.697,239.600 102.088 C 239.600 102.480,239.780 102.800,240.000 102.800 C 240.220 102.800,240.400 102.986,240.400 103.214 C 240.400 103.442,240.715 104.109,241.100 104.696 C 241.828 105.807,242.710 107.949,243.079 109.500 C 243.197 109.995,243.452 110.400,243.647 110.400 C 243.841 110.400,244.000 110.940,244.000 111.600 C 244.000 112.260,244.180 112.800,244.400 112.800 C 244.620 112.800,244.800 113.419,244.800 114.176 C 244.800 114.933,244.980 115.664,245.200 115.800 C 245.420 115.936,245.600 116.757,245.600 117.624 C 245.600 118.491,245.780 119.200,246.000 119.200 C 246.253 119.200,246.400 122.067,246.400 127.000 C 246.400 131.933,246.253 134.800,246.000 134.800 C 245.780 134.800,245.600 135.700,245.600 136.800 C 245.600 137.900,245.420 138.800,245.200 138.800 C 244.980 138.800,244.800 139.252,244.800 139.805 C 244.800 140.358,244.592 141.213,244.338 141.705 C 243.366 143.584,243.200 144.007,243.200 144.600 C 243.200 144.936,243.032 145.523,242.826 145.905 C 242.010 147.419,241.200 149.346,241.200 149.773 C 241.200 150.021,240.840 150.483,240.400 150.800 C 239.960 151.117,239.600 151.697,239.600 152.088 C 239.600 152.480,239.420 152.800,239.200 152.800 C 238.980 152.800,238.800 153.088,238.800 153.440 C 238.800 153.791,238.260 154.583,237.600 155.200 C 236.940 155.817,236.398 156.564,236.396 156.860 C 236.394 157.157,235.818 157.850,235.115 158.400 C 234.412 158.950,232.929 160.302,231.818 161.405 C 230.708 162.507,229.170 163.849,228.400 164.386 C 227.630 164.923,226.709 165.686,226.353 166.081 C 225.997 166.476,225.502 166.800,225.253 166.800 C 225.004 166.800,224.800 166.980,224.800 167.200 C 224.800 167.420,224.480 167.600,224.088 167.600 C 223.697 167.600,223.117 167.960,222.800 168.400 C 222.483 168.840,221.903 169.200,221.512 169.200 C 221.120 169.200,220.800 169.380,220.800 169.600 C 220.800 169.820,220.451 170.000,220.024 170.000 C 219.597 170.000,219.136 170.180,219.000 170.400 C 218.864 170.620,218.313 170.800,217.776 170.800 C 217.239 170.800,216.800 170.980,216.800 171.200 C 216.800 171.420,216.440 171.600,216.000 171.600 C 215.560 171.600,215.200 171.780,215.200 172.000 C 215.200 172.220,214.660 172.400,214.000 172.400 C 213.340 172.400,212.800 172.580,212.800 172.800 C 212.800 173.020,212.080 173.200,211.200 173.200 C 210.320 173.200,209.600 173.380,209.600 173.600 C 209.600 173.820,208.610 174.000,207.400 174.000 C 206.190 174.000,205.200 174.180,205.200 174.400 C 205.200 174.648,203.067 174.800,199.600 174.800 C 196.133 174.800,194.000 174.648,194.000 174.400 C 194.000 174.180,193.010 174.000,191.800 174.000 C 190.590 174.000,189.600 173.820,189.600 173.600 C 189.600 173.380,188.880 173.200,188.000 173.200 C 187.120 173.200,186.400 173.020,186.400 172.800 C 186.400 172.580,185.961 172.400,185.424 172.400 C 184.887 172.400,184.336 172.220,184.200 172.000 C 184.064 171.780,183.618 171.600,183.210 171.600 C 182.801 171.600,182.407 171.422,182.333 171.203 C 182.260 170.985,181.718 170.767,181.129 170.719 C 180.540 170.670,180.145 170.488,180.252 170.315 C 180.360 170.142,180.087 170.000,179.647 170.000 C 179.207 170.000,178.736 169.820,178.600 169.600 C 178.464 169.380,178.043 169.200,177.665 169.200 C 177.286 169.200,176.717 168.840,176.400 168.400 C 176.083 167.960,175.595 167.600,175.316 167.600 C 174.793 167.600,173.789 166.867,172.168 165.300 C 171.656 164.805,171.067 164.400,170.859 164.400 C 170.652 164.400,169.101 163.050,167.413 161.400 C 165.725 159.750,164.207 158.400,164.040 158.400 C 163.872 158.400,163.481 157.905,163.170 157.300 C 162.860 156.695,162.333 155.930,162.000 155.600 C 161.667 155.270,161.140 154.505,160.830 153.900 C 160.519 153.295,160.115 152.800,159.932 152.800 C 159.750 152.800,159.600 152.440,159.600 152.000 C 159.600 151.560,159.441 151.200,159.246 151.200 C 159.051 151.200,158.590 150.525,158.222 149.700 C 157.854 148.875,157.203 147.508,156.776 146.662 C 156.349 145.816,156.000 144.792,156.000 144.386 C 156.000 143.980,155.820 143.536,155.600 143.400 C 155.380 143.264,155.200 142.713,155.200 142.176 C 155.200 141.639,155.020 141.200,154.800 141.200 C 154.580 141.200,154.400 140.660,154.400 140.000 C 154.400 139.340,154.254 138.800,154.075 138.800 C 153.896 138.800,153.705 137.949,153.652 136.909 C 153.598 135.869,153.376 134.909,153.159 134.775 C 152.334 134.265,153.191 116.000,154.040 116.000 C 154.238 116.000,154.400 115.280,154.400 114.400 C 154.400 113.520,154.580 112.800,154.800 112.800 C 155.020 112.800,155.200 112.438,155.200 111.995 C 155.200 111.552,155.365 110.877,155.566 110.495 C 156.383 108.942,158.000 105.153,158.000 104.789 C 158.000 104.575,158.180 104.400,158.400 104.400 C 158.620 104.400,158.800 104.040,158.800 103.600 C 158.800 103.160,158.980 102.800,159.200 102.800 C 159.420 102.800,159.600 102.528,159.600 102.196 C 159.600 101.864,160.140 101.028,160.800 100.337 C 161.460 99.646,162.000 98.923,162.000 98.730 C 162.000 98.537,162.815 97.564,163.811 96.568 C 164.808 95.571,165.499 94.560,165.349 94.317 C 165.185 94.052,165.260 93.990,165.538 94.162 C 165.800 94.323,166.000 94.214,166.000 93.910 C 166.000 93.614,166.495 93.080,167.100 92.721 C 167.705 92.363,168.650 91.684,169.200 91.211 C 169.750 90.738,170.606 90.002,171.103 89.576 C 171.600 89.149,172.185 88.800,172.403 88.800 C 172.621 88.800,172.800 88.650,172.800 88.468 C 172.800 88.285,173.295 87.881,173.900 87.570 C 174.505 87.260,175.291 86.689,175.647 86.303 C 176.003 85.916,176.588 85.600,176.947 85.600 C 177.306 85.600,177.600 85.420,177.600 85.200 C 177.600 84.980,177.960 84.800,178.400 84.800 C 178.840 84.800,179.200 84.620,179.200 84.400 C 179.200 84.180,179.560 84.000,180.000 84.000 C 180.440 84.000,180.800 83.820,180.800 83.600 C 180.800 83.380,181.340 83.200,182.000 83.200 C 182.660 83.200,183.200 83.020,183.200 82.800 C 183.200 82.580,183.560 82.400,184.000 82.400 C 184.440 82.400,184.800 82.220,184.800 82.000 C 184.800 81.780,185.419 81.600,186.176 81.600 C 186.933 81.600,187.664 81.420,187.800 81.200 C 187.936 80.980,188.667 80.800,189.424 80.800 C 190.181 80.800,190.800 80.620,190.800 80.400 C 190.800 80.169,192.059 80.000,193.776 80.000 C 195.413 80.000,196.864 79.820,197.000 79.600 C 197.136 79.380,198.306 79.200,199.600 79.200 C 200.894 79.200,202.064 79.380,202.200 79.600 " stroke="none" fill="#f84849" fill-rule="evenodd"></path><path id="path3" d="M58.500 249.886 C 57.517 250.957,56.800 252.130,56.800 252.669 C 56.800 253.181,56.620 253.600,56.400 253.600 C 56.180 253.600,56.000 253.949,56.000 254.376 C 56.000 254.803,55.820 255.264,55.600 255.400 C 55.380 255.536,55.200 256.087,55.200 256.624 C 55.200 257.161,55.020 257.600,54.800 257.600 C 54.580 257.600,54.400 257.960,54.400 258.400 C 54.400 258.840,54.220 259.200,54.000 259.200 C 53.780 259.200,53.600 259.524,53.600 259.920 C 53.600 260.814,52.706 262.793,52.300 262.797 C 52.135 262.799,52.000 263.149,52.000 263.576 C 52.000 264.003,51.820 264.464,51.600 264.600 C 51.380 264.736,51.200 265.287,51.200 265.824 C 51.200 266.361,51.020 266.800,50.800 266.800 C 50.580 266.800,50.400 267.261,50.400 267.824 C 50.400 268.404,50.227 268.740,50.000 268.600 C 49.773 268.460,49.600 268.798,49.600 269.382 C 49.600 270.283,48.995 271.805,48.400 272.400 C 48.165 272.635,47.905 273.590,47.882 274.300 C 47.874 274.575,47.737 274.800,47.577 274.800 C 47.418 274.800,47.049 275.610,46.757 276.600 C 46.465 277.590,46.085 278.400,45.913 278.400 C 45.741 278.400,45.600 278.861,45.600 279.424 C 45.600 280.056,45.434 280.345,45.167 280.180 C 44.909 280.020,44.767 280.212,44.814 280.656 C 44.942 281.872,44.820 282.460,44.483 282.251 C 44.309 282.144,44.138 282.432,44.103 282.892 C 44.068 283.352,43.896 283.834,43.720 283.964 C 43.419 284.186,43.224 284.738,43.034 285.904 C 42.989 286.181,42.738 286.622,42.476 286.884 C 42.214 287.146,42.000 287.763,42.000 288.256 C 42.000 288.749,41.820 289.264,41.600 289.400 C 41.380 289.536,41.200 289.997,41.200 290.424 C 41.200 290.851,41.020 291.200,40.800 291.200 C 40.580 291.200,40.400 291.751,40.400 292.424 C 40.400 293.137,40.233 293.544,40.000 293.400 C 39.773 293.260,39.600 293.597,39.600 294.179 L 39.600 295.206 66.038 295.103 L 92.475 295.000 93.843 291.600 C 94.596 289.730,95.464 287.660,95.773 287.000 C 96.083 286.340,96.905 284.360,97.600 282.600 C 98.295 280.840,99.120 278.815,99.432 278.100 C 99.745 277.385,100.255 276.215,100.568 275.500 C 100.880 274.785,101.681 272.850,102.348 271.200 C 103.015 269.550,105.296 264.060,107.416 259.000 C 109.536 253.940,111.365 249.395,111.482 248.900 L 111.693 248.000 85.947 248.017 L 60.200 248.035 58.500 249.886 M279.695 248.267 C 279.418 248.378,278.619 249.309,277.920 250.335 C 277.222 251.361,276.360 252.470,276.006 252.800 C 275.652 253.130,274.929 254.030,274.400 254.800 C 273.871 255.570,273.335 256.290,273.209 256.400 C 273.083 256.510,272.359 257.410,271.600 258.400 C 270.841 259.390,270.123 260.290,270.005 260.400 C 269.886 260.510,268.762 261.955,267.507 263.611 C 266.253 265.266,264.904 266.976,264.510 267.411 C 264.116 267.845,262.805 269.367,261.597 270.794 C 260.388 272.221,258.942 273.841,258.381 274.394 C 257.821 274.947,257.081 275.809,256.738 276.309 C 256.394 276.808,255.423 277.978,254.580 278.909 C 250.351 283.574,243.541 290.842,241.477 292.893 L 239.155 295.200 285.626 295.200 C 322.743 295.200,332.020 295.099,331.712 294.700 C 331.499 294.425,330.832 292.940,330.229 291.400 C 329.232 288.854,328.562 287.247,327.562 285.000 C 327.191 284.165,321.616 270.601,318.521 263.000 C 316.608 258.303,316.177 257.284,314.840 254.291 C 314.372 253.242,313.676 251.399,313.294 250.197 L 312.600 248.011 296.400 248.037 C 287.490 248.051,279.973 248.155,279.695 248.267 M339.200 249.157 C 339.200 249.354,339.485 249.624,339.833 249.757 C 340.811 250.133,340.908 250.051,340.257 249.400 C 339.577 248.720,339.200 248.633,339.200 249.157 M345.206 261.071 C 345.218 261.684,345.955 262.578,346.226 262.307 C 346.374 262.159,346.204 261.747,345.848 261.390 C 345.491 261.034,345.203 260.891,345.206 261.071 M349.121 269.407 C 348.819 269.714,349.807 272.513,350.668 273.789 C 351.133 274.478,351.200 274.491,351.200 273.889 C 351.200 273.510,351.020 273.200,350.800 273.200 C 350.580 273.200,350.400 272.750,350.400 272.200 C 350.400 271.650,350.232 271.200,350.027 271.200 C 349.821 271.200,349.596 270.733,349.527 270.162 C 349.457 269.591,349.275 269.251,349.121 269.407 M351.600 276.702 C 351.600 276.922,351.870 277.326,352.200 277.600 C 352.535 277.878,352.800 277.921,352.800 277.698 C 352.800 277.478,352.530 277.074,352.200 276.800 C 351.865 276.522,351.600 276.479,351.600 276.702 M137.457 300.307 C 137.353 300.476,136.518 302.501,135.601 304.807 C 134.684 307.113,133.658 309.630,133.320 310.400 C 132.108 313.159,131.609 314.379,126.201 327.800 C 123.187 335.280,120.395 342.120,119.997 343.000 C 119.599 343.880,118.162 347.390,116.803 350.800 C 115.445 354.210,114.100 357.540,113.814 358.200 C 113.529 358.860,113.021 360.030,112.687 360.800 C 112.352 361.570,109.793 367.870,107.000 374.800 C 104.207 381.730,101.651 388.030,101.320 388.800 C 100.989 389.570,100.575 390.560,100.400 391.000 C 100.225 391.440,99.810 392.430,99.477 393.200 C 98.599 395.234,96.800 399.716,96.800 399.869 C 96.800 399.941,132.440 400.000,176.000 400.000 C 219.560 400.000,255.200 399.861,255.200 399.692 C 255.200 399.522,253.278 397.767,250.928 395.792 C 248.578 393.816,245.822 391.480,244.802 390.600 C 243.782 389.720,241.970 388.173,240.774 387.163 C 239.578 386.153,236.080 383.180,233.000 380.558 C 229.920 377.935,225.690 374.357,223.600 372.606 C 221.510 370.856,219.710 369.327,219.600 369.209 C 219.490 369.091,218.233 368.006,216.807 366.798 C 215.381 365.589,213.761 364.214,213.207 363.741 C 210.306 361.267,200.253 352.762,198.384 351.200 C 197.198 350.210,195.592 348.846,194.814 348.168 C 192.950 346.544,185.632 340.323,174.618 331.000 C 172.324 329.058,159.947 318.547,150.200 310.263 C 136.677 298.770,137.844 299.682,137.457 300.307 " stroke="none" fill="#4ce364" fill-rule="evenodd"></path><path id="path4" d="M277.423 250.370 C 276.421 251.673,275.600 252.856,275.600 252.998 C 275.600 253.421,276.552 252.325,277.914 250.335 C 278.616 249.309,279.418 248.378,279.695 248.267 C 280.054 248.122,280.063 248.054,279.723 248.032 C 279.461 248.014,278.426 249.066,277.423 250.370 M312.800 248.585 C 312.800 249.143,313.806 251.899,315.031 254.700 C 316.430 257.897,316.833 258.855,318.521 263.000 C 321.616 270.601,327.191 284.165,327.562 285.000 C 328.562 287.247,329.232 288.854,330.229 291.400 C 330.832 292.940,331.499 294.425,331.712 294.700 C 332.193 295.324,358.243 295.418,359.200 294.800 C 359.600 294.542,359.633 294.410,359.300 294.406 C 359.025 294.403,358.800 293.950,358.800 293.400 C 358.800 292.850,358.620 292.400,358.400 292.400 C 358.180 292.400,358.000 292.040,358.000 291.600 C 358.000 291.160,357.800 290.800,357.555 290.800 C 357.291 290.800,357.179 290.328,357.279 289.641 C 357.402 288.803,357.304 288.539,356.925 288.684 C 356.574 288.819,356.400 288.539,356.400 287.843 C 356.400 287.269,356.200 286.800,355.955 286.800 C 355.691 286.800,355.579 286.328,355.679 285.641 C 355.802 284.803,355.704 284.539,355.325 284.684 C 354.974 284.819,354.800 284.539,354.800 283.843 C 354.800 283.269,354.620 282.800,354.400 282.800 C 354.180 282.800,354.000 282.451,354.000 282.024 C 354.000 281.597,353.820 281.136,353.600 281.000 C 353.380 280.864,353.200 280.403,353.200 279.976 C 353.200 279.549,353.020 279.200,352.800 279.200 C 352.580 279.200,352.400 278.928,352.400 278.595 C 352.400 278.262,352.241 277.677,352.047 277.295 C 351.852 276.913,351.511 276.150,351.287 275.600 C 351.064 275.050,350.610 273.970,350.277 273.200 C 348.515 269.119,347.638 266.662,347.831 266.350 C 347.950 266.157,347.864 266.000,347.640 266.000 C 347.416 266.000,347.006 265.235,346.730 264.300 C 346.455 263.365,345.987 262.352,345.691 262.048 C 345.396 261.745,345.249 261.250,345.364 260.948 C 345.480 260.647,345.401 260.400,345.187 260.400 C 344.974 260.400,344.800 260.128,344.800 259.795 C 344.800 259.462,344.592 258.787,344.338 258.295 C 343.367 256.418,343.200 255.993,343.200 255.405 C 343.200 255.072,343.020 254.800,342.800 254.800 C 342.580 254.800,342.400 254.634,342.400 254.431 C 342.400 253.459,340.516 249.966,339.883 249.764 C 339.371 249.601,339.236 249.288,339.409 248.668 C 339.600 247.986,339.563 247.929,339.238 248.400 C 338.897 248.894,338.682 248.912,338.018 248.500 C 336.733 247.704,312.800 247.785,312.800 248.585 M273.827 255.000 C 273.240 255.770,272.903 256.398,273.080 256.395 C 273.256 256.392,273.807 255.762,274.304 254.995 C 275.468 253.197,275.200 253.200,273.827 255.000 M271.021 258.600 C 270.210 259.590,269.693 260.393,269.873 260.384 C 270.199 260.369,272.974 256.800,272.661 256.800 C 272.570 256.800,271.833 257.610,271.021 258.600 M268.744 261.500 C 267.475 263.032,267.019 263.742,267.481 263.465 C 267.993 263.158,269.769 260.800,269.489 260.800 C 269.398 260.800,269.063 261.115,268.744 261.500 M265.327 265.712 C 264.626 266.641,263.726 267.763,263.327 268.208 C 260.531 271.316,257.974 274.400,258.195 274.400 C 258.511 274.400,258.782 274.112,261.590 270.790 C 262.794 269.366,263.880 268.110,264.003 268.000 C 264.813 267.277,267.232 264.002,266.948 264.012 C 266.757 264.019,266.027 264.784,265.327 265.712 M255.018 277.800 C 253.984 279.010,253.248 280.000,253.381 280.000 C 253.638 280.000,255.838 277.590,256.723 276.339 C 257.760 274.873,256.858 275.645,255.018 277.800 M250.200 283.100 C 248.880 284.562,245.841 287.792,243.446 290.279 C 241.052 292.766,239.211 294.800,239.355 294.800 C 239.694 294.800,242.623 291.833,248.549 285.486 C 251.162 282.689,253.142 280.409,252.949 280.421 C 252.757 280.432,251.520 281.638,250.200 283.100 " stroke="none" fill="#44cc6c" fill-rule="evenodd"></path></g></svg>